<svg width="269" height="310" viewBox="0 0 269 310" fill="none" xmlns="http://www.w3.org/2000/svg">
<path d="M134 309.019L268.5 232.019V77L134.5 0L2.8669e-05 77L0 232.019L134 309.019Z" fill="white"/>
<path d="M134.5 0L268.5 77V232.019L134 309.019L0 232.019L2.8669e-05 77L134.5 0Z" fill="white"/>
<path d="M0 232.019L2.8669e-05 77L134.5 0L268.5 77V232.019L134 309.019L0 232.019Z" fill="#181818"/>
<path fill-rule="evenodd" clip-rule="evenodd" d="M134.484 19.5977L17 86.8564L17 222.18L134.016 289.421L251.5 222.162L251.5 86.8382L134.484 19.5977ZM268.5 77L134.5 0L2.8669e-05 77L0 232.019L134 309.019L268.5 232.019V77Z" fill="#00BD7E"/>
<path d="M47.336 157.547H61.366V170.479C61.366 171.781 61.61 172.675 62.098 173.163C62.586 173.57 63.5213 173.773 64.904 173.773H67.832C69.1333 173.773 70.028 173.57 70.516 173.163C71.004 172.675 71.248 171.781 71.248 170.479V107.527H85.4V172.431C85.4 180.483 80.9673 184.509 72.102 184.509H60.634C51.7687 184.509 47.336 180.483 47.336 172.431V157.547Z" fill="white"/>
<path d="M108.594 124.607H122.38C131.002 124.607 135.312 128.633 135.312 136.685V172.431C135.312 180.483 131.002 184.509 122.38 184.509H108.594C99.8916 184.509 95.5403 180.483 95.5403 172.431V136.685C95.5403 128.633 99.8916 124.607 108.594 124.607ZM121.77 170.845V138.271C121.77 136.97 121.526 136.116 121.038 135.709C120.55 135.221 119.615 134.977 118.232 134.977H112.62C111.238 134.977 110.302 135.221 109.814 135.709C109.326 136.116 109.082 136.97 109.082 138.271V170.845C109.082 172.147 109.326 173.041 109.814 173.529C110.302 173.936 111.238 174.139 112.62 174.139H118.232C119.615 174.139 120.55 173.936 121.038 173.529C121.526 173.041 121.77 172.147 121.77 170.845Z" fill="white"/>
<path d="M169.636 124.607H183.544V184.509H169.88V178.531C168.904 182.517 166.017 184.509 161.218 184.509H157.436C149.14 184.509 144.992 180.483 144.992 172.431V124.607H158.778V170.479C158.778 171.781 159.022 172.675 159.51 173.163C159.998 173.57 160.893 173.773 162.194 173.773H165.854C168.376 173.773 169.636 172.431 169.636 169.747V124.607Z" fill="white"/>
<path d="M218.365 124.363H220.561V136.319H215.437C210.313 136.319 207.751 139.247 207.751 145.103V184.509H193.965V124.607H207.629V132.293C208.279 129.935 209.54 128.023 211.411 126.559C213.281 125.095 215.599 124.363 218.365 124.363Z" fill="white"/>
</svg>
